<svg xmlns="http://www.w3.org/2000/svg" viewBox="0 0 400 400" width="400" height="400"><rect width="400" height="400" fill="#f0f0f0" /><g id="base">
  <!-- Cabeza cuadrada estilo pixel art -->
  <rect x="120" y="100" width="160" height="180" fill="#2f2213" stroke="#333" stroke-width="2" />
  <!-- Bordes pixelados -->
  <rect x="110" y="110" width="10" height="160" fill="#2f2213" stroke="#333" stroke-width="1" />
  <rect x="280" y="110" width="10" height="160" fill="#2f2213" stroke="#333" stroke-width="1" />
  <rect x="120" y="90" width="160" height="10" fill="#2f2213" stroke="#333" stroke-width="1" />
  <rect x="120" y="280" width="160" height="10" fill="#2f2213" stroke="#333" stroke-width="1" />
</g> <g id="hair-short-pixel">
  <!-- Pelo corto estilo pixel -->
  <rect x="110" y="80" width="180" height="40" fill="#2e1f15" stroke="#333" stroke-width="1" />
  <rect x="100" y="90" width="10" height="30" fill="#2e1f15" stroke="#333" stroke-width="1" />
  <rect x="290" y="90" width="10" height="30" fill="#2e1f15" stroke="#333" stroke-width="1" />
  <rect x="120" y="70" width="160" height="10" fill="#2e1f15" stroke="#333" stroke-width="1" />
  <!-- Detalles pixelados -->
  <rect x="150" y="120" width="10" height="10" fill="#333" opacity="0.5" />
  <rect x="240" y="120" width="10" height="10" fill="#333" opacity="0.5" />
</g> <g id="eyes-pixel-round">
  <!-- Ojo izquierdo -->
  <rect x="150" y="170" width="20" height="20" fill="white" stroke="#333" stroke-width="1" />
  <rect x="155" y="175" width="10" height="10" fill="#6f4e37" stroke="#333" stroke-width="1" />
  <rect x="157" y="177" width="4" height="4" fill="white" />
  
  <!-- Ojo derecho -->
  <rect x="230" y="170" width="20" height="20" fill="white" stroke="#333" stroke-width="1" />
  <rect x="235" y="175" width="10" height="10" fill="#6f4e37" stroke="#333" stroke-width="1" />
  <rect x="237" y="177" width="4" height="4" fill="white" />
  
  <!-- Cejas -->
  <rect x="150" y="160" width="20" height="5" fill="#333" />
  <rect x="230" y="160" width="20" height="5" fill="#333" />
</g> <g id="mouth-pixel-smile">
  <!-- Boca sonriente pixelada -->
  <rect x="160" y="230" width="10" height="10" fill="#333" />
  <rect x="170" y="240" width="60" height="10" fill="#333" />
  <rect x="230" y="230" width="10" height="10" fill="#333" />
  <rect x="170" y="230" width="10" height="10" fill="white" />
  <rect x="220" y="230" width="10" height="10" fill="white" />
  
  <!-- Mejillas pixeladas -->
  <rect x="140" y="220" width="10" height="10" fill="#FFAAAA" opacity="0.5" />
  <rect x="250" y="220" width="10" height="10" fill="#FFAAAA" opacity="0.5" />
</g> <g id="outfit-pixel-classic">
  <!-- Atuendo tipo semilla/planta pixelado -->
  <rect x="140" y="280" width="120" height="40" fill="#4CAF50" stroke="#333" stroke-width="1" />
  <rect x="130" y="290" width="10" height="30" fill="#4CAF50" stroke="#333" stroke-width="1" />
  <rect x="260" y="290" width="10" height="30" fill="#4CAF50" stroke="#333" stroke-width="1" />
  
  <!-- Detalles tipo hojas pixeladas -->
  <rect x="120" y="320" width="30" height="30" fill="#81C784" stroke="#333" stroke-width="1" />
  <rect x="250" y="320" width="30" height="30" fill="#81C784" stroke="#333" stroke-width="1" />
  
  <!-- Tallo pixelado -->
  <rect x="195" y="320" width="10" height="40" fill="#2E7D32" stroke="#333" stroke-width="1" />
  <rect x="185" y="350" width="30" height="10" fill="#2E7D32" stroke="#333" stroke-width="1" />
</g> <g id="accessory-pixel-glasses">
  <!-- Gafas pixeladas -->
  <rect x="140" y="170" width="40" height="20" fill="none" stroke="#333" stroke-width="2" />
  <rect x="220" y="170" width="40" height="20" fill="none" stroke="#333" stroke-width="2" />
  <rect x="180" y="180" width="40" height="5" fill="#333" />
  <rect x="130" y="175" width="10" height="5" fill="#333" />
  <rect x="260" y="175" width="10" height="5" fill="#333" />
</g> </svg>