<svg xmlns="http://www.w3.org/2000/svg" xmlns:xlink="http://www.w3.org/1999/xlink" width="512" zoomAndPan="magnify" viewBox="0 0 384 383.999986" height="512" preserveAspectRatio="xMidYMid meet" version="1.0"><defs><g/><clipPath id="aa40dd8e50"><path d="M 52.566406 71 L 99 71 L 99 215.398438 L 52.566406 215.398438 Z M 52.566406 71 " clip-rule="nonzero"/></clipPath><clipPath id="2f457162e1"><path d="M 285.445312 71.371094 L 331.5625 71.371094 L 331.5625 215.394531 L 285.445312 215.394531 Z M 285.445312 71.371094 " clip-rule="nonzero"/></clipPath><clipPath id="e955a9107f"><path d="M 170 38.398438 L 214 38.398438 L 214 86 L 170 86 Z M 170 38.398438 " clip-rule="nonzero"/></clipPath></defs><path fill="#4a87ce" d="M 147.691406 119.109375 C 144.269531 119.109375 141.082031 119.757812 138.125 121.050781 C 135.164062 122.34375 132.597656 124.085938 130.429688 126.28125 C 128.253906 128.472656 126.53125 131.046875 125.261719 134.003906 C 123.992188 136.957031 123.355469 140.097656 123.355469 143.421875 C 123.355469 146.75 123.992188 149.890625 125.261719 152.84375 C 126.53125 155.800781 128.253906 158.375 130.429688 160.566406 C 132.597656 162.761719 135.164062 164.507812 138.125 165.796875 C 141.082031 167.089844 144.269531 167.738281 147.691406 167.738281 C 151.066406 167.738281 154.230469 167.089844 157.191406 165.796875 C 160.148438 164.507812 162.726562 162.75 164.921875 160.535156 C 167.117188 158.316406 168.847656 155.742188 170.121094 152.808594 C 171.390625 149.878906 172.027344 146.75 172.027344 143.421875 C 172.027344 140.097656 171.390625 136.972656 170.121094 134.039062 C 168.847656 131.105469 167.117188 128.53125 164.921875 126.3125 C 162.726562 124.097656 160.148438 122.34375 157.191406 121.050781 C 154.230469 119.757812 151.066406 119.109375 147.691406 119.109375 Z M 186.519531 143.421875 C 186.519531 154.230469 182.726562 163.375 175.148438 170.855469 C 167.472656 178.429688 158.320312 182.214844 147.691406 182.214844 C 136.96875 182.214844 127.816406 178.429688 120.234375 170.855469 C 112.65625 163.28125 108.863281 154.136719 108.863281 143.421875 C 108.863281 132.710938 112.65625 123.566406 120.234375 115.992188 C 127.816406 108.417969 136.96875 104.632812 147.691406 104.632812 C 158.320312 104.632812 167.472656 108.417969 175.148438 115.992188 C 178.9375 119.78125 181.769531 123.960938 183.640625 128.53125 C 185.511719 133.101562 186.472656 138.066406 186.519531 143.421875 " fill-opacity="1" fill-rule="nonzero"/><path fill="#4a87ce" d="M 236.4375 119.109375 C 233.015625 119.109375 229.828125 119.757812 226.871094 121.050781 C 223.910156 122.34375 221.34375 124.085938 219.171875 126.28125 C 217 128.472656 215.277344 131.046875 214.007812 134.003906 C 212.734375 136.957031 212.101562 140.097656 212.101562 143.421875 C 212.101562 146.75 212.734375 149.890625 214.007812 152.84375 C 215.277344 155.800781 217 158.375 219.171875 160.566406 C 221.34375 162.761719 223.910156 164.507812 226.871094 165.796875 C 229.828125 167.089844 233.015625 167.738281 236.4375 167.738281 C 239.808594 167.738281 242.976562 167.089844 245.9375 165.796875 C 248.894531 164.507812 251.472656 162.75 253.667969 160.535156 C 255.863281 158.316406 257.59375 155.742188 258.867188 152.808594 C 260.136719 149.878906 260.773438 146.75 260.773438 143.421875 C 260.773438 140.097656 260.136719 136.972656 258.867188 134.039062 C 257.59375 131.105469 255.863281 128.53125 253.667969 126.3125 C 251.472656 124.097656 248.894531 122.34375 245.9375 121.050781 C 242.976562 119.757812 239.808594 119.109375 236.4375 119.109375 Z M 275.265625 143.421875 C 275.265625 154.230469 271.472656 163.375 263.894531 170.855469 C 256.21875 178.429688 247.066406 182.214844 236.4375 182.214844 C 225.710938 182.214844 216.558594 178.429688 208.984375 170.855469 C 201.402344 163.28125 197.613281 154.136719 197.613281 143.421875 C 197.613281 132.710938 201.402344 123.566406 208.984375 115.992188 C 216.558594 108.417969 225.710938 104.632812 236.4375 104.632812 C 247.066406 104.632812 256.21875 108.417969 263.894531 115.992188 C 267.683594 119.78125 270.515625 123.960938 272.386719 128.53125 C 274.257812 133.101562 275.214844 138.066406 275.265625 143.421875 " fill-opacity="1" fill-rule="nonzero"/><g clip-path="url(#aa40dd8e50)"><path fill="#211d1d" d="M 91.394531 71.453125 C 93.472656 71.453125 95.195312 72.15625 96.558594 73.566406 C 97.921875 74.972656 98.605469 76.691406 98.605469 78.726562 C 98.605469 80.804688 97.921875 82.523438 96.558594 83.886719 C 95.195312 85.25 93.472656 85.929688 91.394531 85.929688 C 85.660156 85.929688 82.796875 88.792969 82.796875 94.519531 L 82.796875 127.628906 C 82.796875 134.28125 81.269531 139.546875 78.21875 143.421875 C 81.269531 147.304688 82.796875 152.566406 82.796875 159.21875 L 82.796875 192.328125 C 82.796875 198.054688 85.660156 200.917969 91.394531 200.917969 C 93.472656 200.917969 95.195312 201.597656 96.558594 202.964844 C 97.921875 204.324219 98.605469 206.042969 98.605469 208.125 C 98.605469 210.199219 97.921875 211.933594 96.558594 213.320312 C 95.195312 214.703125 93.472656 215.394531 91.394531 215.394531 C 76 215.394531 68.304688 207.707031 68.304688 192.328125 L 68.304688 159.21875 C 68.304688 153.492188 65.460938 150.628906 59.777344 150.628906 C 57.699219 150.628906 55.976562 149.945312 54.613281 148.585938 C 53.246094 147.222656 52.566406 145.5 52.566406 143.421875 C 52.566406 141.347656 53.246094 139.625 54.613281 138.261719 C 55.976562 136.902344 57.699219 136.21875 59.777344 136.21875 C 65.460938 136.21875 68.304688 133.355469 68.304688 127.628906 L 68.304688 94.519531 C 68.304688 79.140625 76 71.453125 91.394531 71.453125 " fill-opacity="1" fill-rule="nonzero"/></g><g clip-path="url(#2f457162e1)"><path fill="#211d1d" d="M 315.824219 94.519531 L 315.824219 127.628906 C 315.824219 133.355469 318.667969 136.21875 324.351562 136.21875 C 326.433594 136.21875 328.152344 136.902344 329.515625 138.261719 C 330.878906 139.625 331.5625 141.347656 331.5625 143.421875 C 331.5625 145.5 330.878906 147.222656 329.515625 148.585938 C 328.152344 149.945312 326.433594 150.628906 324.351562 150.628906 C 318.667969 150.628906 315.824219 153.492188 315.824219 159.21875 L 315.824219 192.328125 C 315.824219 207.707031 308.128906 215.394531 292.734375 215.394531 C 290.65625 215.394531 288.933594 214.703125 287.570312 213.320312 C 286.207031 211.933594 285.527344 210.199219 285.527344 208.125 C 285.527344 206.042969 286.207031 204.324219 287.570312 202.964844 C 288.933594 201.597656 290.65625 200.917969 292.734375 200.917969 C 298.46875 200.917969 301.332031 198.054688 301.332031 192.328125 L 301.332031 159.21875 C 301.332031 152.566406 302.859375 147.304688 305.910156 143.421875 C 302.859375 139.546875 301.332031 134.28125 301.332031 127.628906 L 301.332031 94.519531 C 301.332031 88.792969 298.46875 85.929688 292.734375 85.929688 C 290.65625 85.929688 288.933594 85.25 287.570312 83.886719 C 286.207031 82.523438 285.527344 80.804688 285.527344 78.726562 C 285.527344 76.691406 286.207031 74.972656 287.570312 73.566406 C 288.933594 72.15625 290.65625 71.453125 292.734375 71.453125 C 308.128906 71.453125 315.824219 79.140625 315.824219 94.519531 " fill-opacity="1" fill-rule="nonzero"/></g><g clip-path="url(#e955a9107f)"><path fill="#211d1d" d="M 213.765625 77.195312 C 213.765625 78.398438 213.535156 79.515625 213.070312 80.554688 C 212.609375 81.59375 211.996094 82.507812 211.234375 83.292969 C 210.472656 84.078125 209.558594 84.6875 208.496094 85.125 C 207.429688 85.566406 206.324219 85.785156 205.167969 85.785156 C 203.039062 85.785156 201.214844 85.046875 199.691406 83.566406 C 198.164062 82.089844 196.917969 80.277344 195.945312 78.128906 C 194.976562 75.984375 194.269531 73.765625 193.832031 71.480469 C 193.394531 69.195312 193.171875 67.058594 193.171875 65.074219 C 193.171875 56.898438 196.664062 48.632812 203.640625 40.273438 C 204.890625 39.027344 206.300781 38.402344 207.871094 38.402344 C 209.488281 38.402344 210.875 38.980469 212.03125 40.136719 C 213.1875 41.289062 213.765625 42.675781 213.765625 44.292969 C 213.765625 45.078125 213.601562 45.882812 213.28125 46.714844 C 211.199219 51.796875 210.160156 56.621094 210.160156 61.195312 C 210.160156 65.535156 211.105469 69.738281 213.003906 73.800781 C 213.511719 74.957031 213.765625 76.085938 213.765625 77.195312 Z M 190.957031 77.195312 C 190.957031 78.398438 190.722656 79.515625 190.261719 80.554688 C 189.796875 81.59375 189.1875 82.507812 188.425781 83.292969 C 187.664062 84.078125 186.75 84.6875 185.6875 85.125 C 184.621094 85.566406 183.511719 85.785156 182.359375 85.785156 C 180.230469 85.785156 178.40625 85.046875 176.878906 83.566406 C 175.355469 82.089844 174.109375 80.277344 173.136719 78.128906 C 172.164062 75.984375 171.460938 73.765625 171.023438 71.480469 C 170.582031 69.195312 170.363281 67.058594 170.363281 65.074219 C 170.363281 56.898438 173.851562 48.632812 180.832031 40.273438 C 182.078125 39.027344 183.488281 38.402344 185.0625 38.402344 C 186.679688 38.402344 188.066406 38.980469 189.222656 40.136719 C 190.378906 41.289062 190.957031 42.675781 190.957031 44.292969 C 190.957031 45.078125 190.792969 45.882812 190.46875 46.714844 C 188.390625 51.796875 187.347656 56.621094 187.347656 61.195312 C 187.347656 65.535156 188.296875 69.738281 190.191406 73.800781 C 190.699219 74.957031 190.957031 76.085938 190.957031 77.195312 " fill-opacity="1" fill-rule="nonzero"/></g><g fill="#4a87ce" fill-opacity="1"><g transform="translate(47.065837, 303.308446)"><g><path d="M 12.515625 0.171875 C 11.609375 0.0546875 9.863281 0 7.28125 0 L 5.015625 0 L 5.015625 -37.765625 C 6.222656 -37.679688 7.550781 -37.640625 9 -37.640625 C 10.457031 -37.640625 11.488281 -37.71875 12.09375 -37.875 L 21.59375 -21.703125 L 30.734375 -37.875 C 31.335938 -37.71875 32.488281 -37.640625 34.1875 -37.640625 C 35.882812 -37.640625 37.335938 -37.679688 38.546875 -37.765625 L 38.546875 0 L 36.28125 0 C 33.695312 0 31.953125 0.0546875 31.046875 0.171875 L 31.046875 -25.1875 L 21.796875 -8.640625 L 12.515625 -23.859375 Z M 12.515625 0.171875 "/></g></g></g><g fill="#4a87ce" fill-opacity="1"><g transform="translate(90.614626, 303.308446)"><g><path d="M 5.75 -37.765625 C 7.632812 -37.679688 8.773438 -37.640625 9.171875 -37.640625 L 11.203125 -37.640625 C 12.203125 -37.640625 13.003906 -37.71875 13.609375 -37.875 L 13.59375 0 L 5.75 0 Z M 5.75 -37.765625 "/></g></g></g><g fill="#4a87ce" fill-opacity="1"><g transform="translate(109.969642, 303.308446)"><g><path d="M 18.453125 0.171875 C 17.546875 0.0546875 15.21875 0 11.46875 0 L 10.5625 0 L 10.5625 -31.3125 L 4.953125 -31.3125 C 3.296875 -31.3125 2.316406 -31.222656 2.015625 -31.046875 C 1.710938 -30.878906 1.472656 -30.726562 1.296875 -30.59375 L 1.21875 -30.625 L 1.21875 -37.875 L 1.296875 -37.953125 C 1.921875 -37.742188 3.601562 -37.640625 6.34375 -37.640625 L 24.09375 -37.640625 C 25.75 -37.640625 26.726562 -37.722656 27.03125 -37.890625 C 27.332031 -38.066406 27.566406 -38.222656 27.734375 -38.359375 L 27.828125 -38.328125 L 27.828125 -31.078125 L 27.734375 -31 C 27.117188 -31.207031 25.441406 -31.3125 22.703125 -31.3125 L 18.453125 -31.3125 Z M 18.453125 0.171875 "/></g></g></g><g fill="#4a87ce" fill-opacity="1"><g transform="translate(139.002167, 303.308446)"><g><path d="M 7.609375 0.21875 C 5.992188 0.0703125 4.097656 0 1.921875 0 L -0.3125 0 L 12 -34.5 C 12.550781 -36.050781 12.828125 -36.953125 12.828125 -37.203125 C 12.828125 -37.460938 12.816406 -37.617188 12.796875 -37.671875 L 12.828125 -37.734375 C 14.046875 -37.671875 15.347656 -37.640625 16.734375 -37.640625 C 17.859375 -37.640625 19.210938 -37.660156 20.796875 -37.703125 L 20.828125 -37.640625 C 20.796875 -37.566406 20.78125 -37.460938 20.78125 -37.328125 C 20.78125 -36.972656 21.0625 -36.019531 21.625 -34.46875 L 34.1875 0.078125 C 33.8125 0.0664062 33.367188 0.0625 32.859375 0.0625 C 32.859375 0.0625 32.367188 0.0390625 31.390625 0 C 30.921875 0 30.492188 0 30.109375 0 L 25.734375 0 L 23.0625 -8.15625 L 10.28125 -8.15625 Z M 20.859375 -14.9375 L 16.59375 -28.109375 L 12.421875 -14.9375 Z M 20.859375 -14.9375 "/></g></g></g><g fill="#4a87ce" fill-opacity="1"><g transform="translate(172.873446, 303.308446)"><g><path d="M 5.75 -37.765625 C 7.632812 -37.679688 8.773438 -37.640625 9.171875 -37.640625 L 11.203125 -37.640625 C 12.203125 -37.640625 13.003906 -37.71875 13.609375 -37.875 L 13.59375 0 L 5.75 0 Z M 7.21875 -50.609375 C 10.050781 -50.609375 13.070312 -50.769531 16.28125 -51.09375 L 16.25 -50.890625 L 8.828125 -41.75 L 2.4375 -41.75 Z M 7.21875 -50.609375 "/></g></g></g><g fill="#211d1d" fill-opacity="1"><g transform="translate(192.228717, 303.308446)"><g><path d="M 21.734375 -38.359375 C 25.265625 -38.359375 28.273438 -37.742188 30.765625 -36.515625 L 30.765625 -27.859375 L 30.71875 -27.796875 C 29.65625 -29.421875 27.425781 -30.492188 24.03125 -31.015625 C 23.03125 -31.191406 21.765625 -31.28125 20.234375 -31.28125 C 18.710938 -31.28125 17.210938 -30.988281 15.734375 -30.40625 C 14.265625 -29.832031 13.054688 -29.019531 12.109375 -27.96875 C 10.285156 -25.90625 9.375 -22.96875 9.375 -19.15625 C 9.375 -14.726562 10.53125 -11.425781 12.84375 -9.25 C 14.769531 -7.4375 17.320312 -6.53125 20.5 -6.53125 C 24.082031 -6.53125 26.984375 -7.296875 29.203125 -8.828125 C 30.015625 -9.378906 30.707031 -10.0625 31.28125 -10.875 L 31.359375 -10.8125 L 31.359375 -2.890625 C 28.472656 -0.492188 24.585938 0.703125 19.703125 0.703125 C 13.941406 0.703125 9.429688 -1.125 6.171875 -4.78125 C 3.035156 -8.269531 1.46875 -12.894531 1.46875 -18.65625 C 1.46875 -24.75 3.1875 -29.550781 6.625 -33.0625 C 10.09375 -36.59375 15.128906 -38.359375 21.734375 -38.359375 Z M 21.734375 -38.359375 "/></g></g></g><g fill="#211d1d" fill-opacity="1"><g transform="translate(225.845325, 303.308446)"><g><path d="M 7.953125 -4.46875 C 6.234375 -6.113281 4.878906 -8.085938 3.890625 -10.390625 C 2.898438 -12.691406 2.40625 -15.210938 2.40625 -17.953125 C 2.40625 -20.703125 2.867188 -23.300781 3.796875 -25.75 C 4.722656 -28.207031 6.039062 -30.367188 7.75 -32.234375 C 9.46875 -34.109375 11.546875 -35.597656 13.984375 -36.703125 C 16.421875 -37.804688 19.144531 -38.359375 22.15625 -38.359375 C 27.363281 -38.359375 31.753906 -36.710938 35.328125 -33.421875 C 39.140625 -29.910156 41.046875 -25.175781 41.046875 -19.21875 C 41.046875 -13.445312 39.082031 -8.644531 35.15625 -4.8125 C 32.738281 -2.457031 29.859375 -0.832031 26.515625 0.0625 C 24.878906 0.488281 22.960938 0.703125 20.765625 0.703125 C 18.566406 0.703125 16.3125 0.25 14 -0.65625 C 11.6875 -1.5625 9.671875 -2.832031 7.953125 -4.46875 Z M 10.28125 -18.34375 C 10.28125 -16.582031 10.570312 -14.96875 11.15625 -13.5 C 11.738281 -12.03125 12.550781 -10.765625 13.59375 -9.703125 C 15.789062 -7.484375 18.628906 -6.375 22.109375 -6.375 C 25.410156 -6.375 28.0625 -7.4375 30.0625 -9.5625 C 32.09375 -11.769531 33.109375 -14.78125 33.109375 -18.59375 C 33.109375 -22.175781 32.140625 -25.164062 30.203125 -27.5625 C 28.109375 -30.132812 25.238281 -31.421875 21.59375 -31.421875 C 18.0625 -31.421875 15.257812 -30.117188 13.1875 -27.515625 C 11.25 -25.078125 10.28125 -22.019531 10.28125 -18.34375 Z M 10.28125 -18.34375 "/></g></g></g><g fill="#211d1d" fill-opacity="1"><g transform="translate(269.280926, 303.308446)"><g><path d="M 14.046875 0.703125 C 10.984375 0.703125 8.101562 0.457031 5.40625 -0.03125 L 5.40625 -37.90625 C 7.894531 -38.207031 10.785156 -38.359375 14.078125 -38.359375 C 17.367188 -38.359375 20.347656 -37.910156 23.015625 -37.015625 C 25.691406 -36.117188 27.925781 -34.835938 29.71875 -33.171875 C 33.34375 -29.847656 35.15625 -25.195312 35.15625 -19.21875 C 35.15625 -12.519531 33.132812 -7.4375 29.09375 -3.96875 C 25.46875 -0.851562 20.453125 0.703125 14.046875 0.703125 Z M 12.765625 -6.203125 C 13.992188 -5.972656 15.21875 -5.859375 16.4375 -5.859375 C 17.664062 -5.859375 18.988281 -6.097656 20.40625 -6.578125 C 21.820312 -7.054688 23.050781 -7.804688 24.09375 -8.828125 C 26.3125 -10.984375 27.421875 -14.117188 27.421875 -18.234375 C 27.421875 -24.984375 24.960938 -29.132812 20.046875 -30.6875 C 18.421875 -31.195312 16.539062 -31.453125 14.40625 -31.453125 L 13.640625 -31.453125 C 13.359375 -31.453125 13.066406 -31.441406 12.765625 -31.421875 Z M 12.765625 -6.203125 "/></g></g></g><g fill="#211d1d" fill-opacity="1"><g transform="translate(307.877771, 303.308446)"><g><path d="M 23.796875 -6.796875 C 24.972656 -6.796875 25.785156 -6.910156 26.234375 -7.140625 L 26.359375 -7.109375 L 26.0625 0 L 4.875 0 L 4.875 -37.84375 C 5.375 -37.800781 5.9375 -37.773438 6.5625 -37.765625 L 8.546875 -37.703125 C 9.867188 -37.660156 11.300781 -37.640625 12.84375 -37.640625 C 17.164062 -37.640625 21.441406 -37.71875 25.671875 -37.875 C 25.460938 -36.207031 25.359375 -33.988281 25.359375 -31.21875 C 25.359375 -30.914062 25.378906 -30.691406 25.421875 -30.546875 L 25.359375 -30.453125 C 24.378906 -30.734375 22.984375 -30.875 21.171875 -30.875 L 12.25 -30.875 L 12.25 -23.65625 L 18.96875 -23.65625 C 21.039062 -23.65625 22.285156 -23.710938 22.703125 -23.828125 L 22.78125 -16.84375 C 21.875 -16.9375 20.707031 -16.984375 19.28125 -16.984375 L 12.25 -16.984375 L 12.25 -6.796875 Z M 23.796875 -6.796875 "/></g></g></g><g fill="#737373" fill-opacity="1"><g transform="translate(116.141586, 338.690218)"><g><path d="M 2.875 0 L 2.875 -12.859375 L 0.25 -12.859375 L 0.25 -14.3125 L 7.09375 -14.3125 L 7.09375 -12.859375 L 4.453125 -12.859375 L 4.453125 0 Z M 2.875 0 "/></g></g></g><g fill="#737373" fill-opacity="1"><g transform="translate(131.678605, 338.690218)"><g><path d="M 5.90625 -7.96875 L 5.90625 -6.546875 L 2.40625 -6.546875 L 2.40625 -1.453125 L 6.703125 -1.453125 L 6.703125 0 L 0.8125 0 L 0.8125 -14.3125 L 6.703125 -14.3125 L 6.703125 -12.859375 L 2.40625 -12.859375 L 2.40625 -7.96875 Z M 5.90625 -7.96875 "/></g></g></g><g fill="#737373" fill-opacity="1"><g transform="translate(147.215625, 338.690218)"><g><path d="M 3.90625 -14.453125 C 5.007812 -14.453125 5.820312 -14.125 6.34375 -13.46875 C 6.863281 -12.8125 7.125 -11.941406 7.125 -10.859375 L 7.125 -9.5625 L 5.625 -9.5625 L 5.625 -10.9375 C 5.625 -11.59375 5.488281 -12.097656 5.21875 -12.453125 C 4.957031 -12.816406 4.53125 -13 3.9375 -13 C 3.375 -13 2.953125 -12.816406 2.671875 -12.453125 C 2.398438 -12.097656 2.265625 -11.59375 2.265625 -10.9375 L 2.265625 -3.375 C 2.265625 -2.71875 2.398438 -2.207031 2.671875 -1.84375 C 2.953125 -1.488281 3.375 -1.3125 3.9375 -1.3125 C 4.53125 -1.3125 4.957031 -1.488281 5.21875 -1.84375 C 5.488281 -2.207031 5.625 -2.71875 5.625 -3.375 L 5.625 -5.234375 L 7.125 -5.234375 L 7.125 -3.453125 C 7.125 -2.359375 6.863281 -1.484375 6.34375 -0.828125 C 5.820312 -0.179688 5.007812 0.140625 3.90625 0.140625 C 2.8125 0.140625 2 -0.179688 1.46875 -0.828125 C 0.945312 -1.484375 0.6875 -2.359375 0.6875 -3.453125 L 0.6875 -10.859375 C 0.6875 -11.398438 0.75 -11.890625 0.875 -12.328125 C 1.007812 -12.773438 1.207031 -13.15625 1.46875 -13.46875 C 1.738281 -13.78125 2.078125 -14.019531 2.484375 -14.1875 C 2.890625 -14.363281 3.363281 -14.453125 3.90625 -14.453125 Z M 3.90625 -14.453125 "/></g></g></g><g fill="#737373" fill-opacity="1"><g transform="translate(163.161349, 338.690218)"><g><path d="M 2.40625 -6.4375 L 2.40625 0 L 0.8125 0 L 0.8125 -14.3125 L 2.40625 -14.3125 L 2.40625 -7.875 L 5.921875 -7.875 L 5.921875 -14.3125 L 7.515625 -14.3125 L 7.515625 0 L 5.921875 0 L 5.921875 -6.4375 Z M 2.40625 -6.4375 "/></g></g></g><g fill="#737373" fill-opacity="1"><g transform="translate(179.679271, 338.690218)"><g><path d="M 2.234375 0 L 0.796875 0 L 0.796875 -14.3125 L 2.828125 -14.3125 L 6.125 -3.96875 L 6.125 -14.3125 L 7.546875 -14.3125 L 7.546875 0 L 5.890625 0 L 2.234375 -11.5625 Z M 2.234375 0 "/></g></g></g><g fill="#737373" fill-opacity="1"><g transform="translate(196.217638, 338.690218)"><g><path d="M 0.6875 -10.859375 C 0.6875 -11.953125 0.957031 -12.820312 1.5 -13.46875 C 2.039062 -14.125 2.863281 -14.453125 3.96875 -14.453125 C 5.070312 -14.453125 5.894531 -14.125 6.4375 -13.46875 C 6.976562 -12.820312 7.25 -11.953125 7.25 -10.859375 L 7.25 -3.453125 C 7.25 -2.359375 6.976562 -1.484375 6.4375 -0.828125 C 5.894531 -0.179688 5.070312 0.140625 3.96875 0.140625 C 2.863281 0.140625 2.039062 -0.179688 1.5 -0.828125 C 0.957031 -1.484375 0.6875 -2.359375 0.6875 -3.453125 Z M 2.265625 -3.375 C 2.265625 -2.71875 2.40625 -2.207031 2.6875 -1.84375 C 2.96875 -1.488281 3.394531 -1.3125 3.96875 -1.3125 C 4.550781 -1.3125 4.976562 -1.488281 5.25 -1.84375 C 5.519531 -2.207031 5.65625 -2.71875 5.65625 -3.375 L 5.65625 -10.9375 C 5.65625 -11.59375 5.519531 -12.097656 5.25 -12.453125 C 4.976562 -12.816406 4.550781 -13 3.96875 -13 C 3.394531 -13 2.96875 -12.816406 2.6875 -12.453125 C 2.40625 -12.097656 2.265625 -11.59375 2.265625 -10.9375 Z M 2.265625 -3.375 "/></g></g></g><g fill="#737373" fill-opacity="1"><g transform="translate(212.347297, 338.690218)"><g><path d="M 0.8125 0 L 0.8125 -14.3125 L 2.40625 -14.3125 L 2.40625 -1.453125 L 6.5 -1.453125 L 6.5 0 Z M 0.8125 0 "/></g></g></g><g fill="#737373" fill-opacity="1"><g transform="translate(227.414294, 338.690218)"><g><path d="M 0.6875 -10.859375 C 0.6875 -11.953125 0.957031 -12.820312 1.5 -13.46875 C 2.039062 -14.125 2.863281 -14.453125 3.96875 -14.453125 C 5.070312 -14.453125 5.894531 -14.125 6.4375 -13.46875 C 6.976562 -12.820312 7.25 -11.953125 7.25 -10.859375 L 7.25 -3.453125 C 7.25 -2.359375 6.976562 -1.484375 6.4375 -0.828125 C 5.894531 -0.179688 5.070312 0.140625 3.96875 0.140625 C 2.863281 0.140625 2.039062 -0.179688 1.5 -0.828125 C 0.957031 -1.484375 0.6875 -2.359375 0.6875 -3.453125 Z M 2.265625 -3.375 C 2.265625 -2.71875 2.40625 -2.207031 2.6875 -1.84375 C 2.96875 -1.488281 3.394531 -1.3125 3.96875 -1.3125 C 4.550781 -1.3125 4.976562 -1.488281 5.25 -1.84375 C 5.519531 -2.207031 5.65625 -2.71875 5.65625 -3.375 L 5.65625 -10.9375 C 5.65625 -11.59375 5.519531 -12.097656 5.25 -12.453125 C 4.976562 -12.816406 4.550781 -13 3.96875 -13 C 3.394531 -13 2.96875 -12.816406 2.6875 -12.453125 C 2.40625 -12.097656 2.265625 -11.59375 2.265625 -10.9375 Z M 2.265625 -3.375 "/></g></g></g><g fill="#737373" fill-opacity="1"><g transform="translate(243.543953, 338.690218)"><g><path d="M 3.90625 -14.453125 C 5.007812 -14.453125 5.820312 -14.125 6.34375 -13.46875 C 6.863281 -12.8125 7.125 -11.941406 7.125 -10.859375 L 7.125 -9.625 L 5.625 -9.625 L 5.625 -10.9375 C 5.625 -11.59375 5.488281 -12.097656 5.21875 -12.453125 C 4.957031 -12.816406 4.53125 -13 3.9375 -13 C 3.375 -13 2.953125 -12.816406 2.671875 -12.453125 C 2.398438 -12.097656 2.265625 -11.59375 2.265625 -10.9375 L 2.265625 -3.375 C 2.265625 -2.71875 2.398438 -2.207031 2.671875 -1.84375 C 2.953125 -1.488281 3.375 -1.3125 3.9375 -1.3125 C 4.53125 -1.3125 4.957031 -1.488281 5.21875 -1.84375 C 5.488281 -2.207031 5.625 -2.71875 5.625 -3.375 L 5.625 -6.234375 L 4.15625 -6.234375 L 4.15625 -7.65625 L 7.125 -7.65625 L 7.125 -3.453125 C 7.125 -2.359375 6.863281 -1.484375 6.34375 -0.828125 C 5.820312 -0.179688 5.007812 0.140625 3.90625 0.140625 C 2.8125 0.140625 2 -0.179688 1.46875 -0.828125 C 0.945312 -1.484375 0.6875 -2.359375 0.6875 -3.453125 L 0.6875 -10.859375 C 0.6875 -11.398438 0.75 -11.890625 0.875 -12.328125 C 1.007812 -12.773438 1.207031 -13.15625 1.46875 -13.46875 C 1.738281 -13.78125 2.078125 -14.019531 2.484375 -14.1875 C 2.890625 -14.363281 3.363281 -14.453125 3.90625 -14.453125 Z M 3.90625 -14.453125 "/></g></g></g><g fill="#737373" fill-opacity="1"><g transform="translate(259.550979, 338.690218)"><g><path d="M 3.359375 -5.125 L 0.328125 -14.3125 L 1.984375 -14.3125 L 4.203125 -7.28125 L 6.453125 -14.3125 L 7.96875 -14.3125 L 4.921875 -5.125 L 4.921875 0 L 3.359375 0 Z M 3.359375 -5.125 "/></g></g></g></svg>