<svg xmlns="http://www.w3.org/2000/svg" xmlns:xlink="http://www.w3.org/1999/xlink" width="128" zoomAndPan="magnify" viewBox="0 0 96 95.999999" height="128" preserveAspectRatio="xMidYMid meet" version="1.0"><defs><g/><clipPath id="bbd952bdff"><path d="M 0 28 L 16 28 L 16 78.269531 L 0 78.269531 Z M 0 28 " clip-rule="nonzero"/></clipPath><clipPath id="4f6ea0cb98"><path d="M 80.128906 28.835938 L 95.992188 28.835938 L 95.992188 78.269531 L 80.128906 78.269531 Z M 80.128906 28.835938 " clip-rule="nonzero"/></clipPath><clipPath id="51258b1972"><path d="M 40 17.519531 L 56 17.519531 L 56 34 L 40 34 Z M 40 17.519531 " clip-rule="nonzero"/></clipPath></defs><path fill="#4a87ce" d="M 32.734375 45.222656 C 31.554688 45.222656 30.457031 45.445312 29.441406 45.886719 C 28.421875 46.332031 27.539062 46.929688 26.792969 47.683594 C 26.046875 48.433594 25.453125 49.320312 25.015625 50.332031 C 24.578125 51.347656 24.359375 52.425781 24.359375 53.566406 C 24.359375 54.707031 24.578125 55.785156 25.015625 56.800781 C 25.453125 57.816406 26.046875 58.699219 26.792969 59.449219 C 27.539062 60.203125 28.421875 60.804688 29.441406 61.246094 C 30.457031 61.691406 31.554688 61.910156 32.734375 61.910156 C 33.894531 61.910156 34.984375 61.691406 36 61.246094 C 37.019531 60.804688 37.90625 60.199219 38.660156 59.4375 C 39.414062 58.679688 40.011719 57.796875 40.449219 56.789062 C 40.886719 55.78125 41.105469 54.707031 41.105469 53.566406 C 41.105469 52.425781 40.886719 51.351562 40.449219 50.34375 C 40.011719 49.339844 39.414062 48.453125 38.660156 47.695312 C 37.90625 46.933594 37.019531 46.332031 36 45.886719 C 34.984375 45.445312 33.894531 45.222656 32.734375 45.222656 Z M 46.089844 53.566406 C 46.089844 57.277344 44.785156 60.414062 42.179688 62.980469 C 39.539062 65.582031 36.390625 66.882812 32.734375 66.882812 C 29.042969 66.882812 25.894531 65.582031 23.285156 62.980469 C 20.679688 60.382812 19.375 57.242188 19.375 53.566406 C 19.375 49.890625 20.679688 46.75 23.285156 44.152344 C 25.894531 41.550781 29.042969 40.25 32.734375 40.25 C 36.390625 40.25 39.539062 41.550781 42.179688 44.152344 C 43.484375 45.449219 44.457031 46.886719 45.101562 48.453125 C 45.746094 50.023438 46.074219 51.726562 46.089844 53.566406 " fill-opacity="1" fill-rule="nonzero"/><path fill="#4a87ce" d="M 63.265625 45.222656 C 62.089844 45.222656 60.992188 45.445312 59.972656 45.886719 C 58.957031 46.332031 58.074219 46.929688 57.324219 47.683594 C 56.578125 48.433594 55.984375 49.320312 55.550781 50.332031 C 55.109375 51.347656 54.894531 52.425781 54.894531 53.566406 C 54.894531 54.707031 55.109375 55.785156 55.550781 56.800781 C 55.984375 57.816406 56.578125 58.699219 57.324219 59.449219 C 58.074219 60.203125 58.957031 60.804688 59.972656 61.246094 C 60.992188 61.691406 62.089844 61.910156 63.265625 61.910156 C 64.425781 61.910156 65.515625 61.691406 66.535156 61.246094 C 67.550781 60.804688 68.4375 60.199219 69.195312 59.4375 C 69.949219 58.679688 70.546875 57.796875 70.980469 56.789062 C 71.417969 55.78125 71.636719 54.707031 71.636719 53.566406 C 71.636719 52.425781 71.417969 51.351562 70.980469 50.34375 C 70.546875 49.339844 69.949219 48.453125 69.195312 47.695312 C 68.4375 46.933594 67.550781 46.332031 66.535156 45.886719 C 65.515625 45.445312 64.425781 45.222656 63.265625 45.222656 Z M 76.625 53.566406 C 76.625 57.277344 75.320312 60.414062 72.710938 62.980469 C 70.070312 65.582031 66.921875 66.882812 63.265625 66.882812 C 59.574219 66.882812 56.425781 65.582031 53.820312 62.980469 C 51.210938 60.382812 49.90625 57.242188 49.90625 53.566406 C 49.90625 49.890625 51.210938 46.75 53.820312 44.152344 C 56.425781 41.550781 59.574219 40.25 63.265625 40.25 C 66.921875 40.25 70.070312 41.550781 72.710938 44.152344 C 74.015625 45.449219 74.988281 46.886719 75.632812 48.453125 C 76.277344 50.023438 76.605469 51.726562 76.625 53.566406 " fill-opacity="1" fill-rule="nonzero"/><g clip-path="url(#bbd952bdff)"><path fill="#211d1d" d="M 13.363281 28.863281 C 14.078125 28.863281 14.671875 29.105469 15.140625 29.589844 C 15.609375 30.070312 15.84375 30.664062 15.84375 31.359375 C 15.84375 32.074219 15.609375 32.664062 15.140625 33.132812 C 14.671875 33.597656 14.078125 33.832031 13.363281 33.832031 C 11.390625 33.832031 10.40625 34.816406 10.40625 36.78125 L 10.40625 48.144531 C 10.40625 50.429688 9.878906 52.234375 8.832031 53.566406 C 9.878906 54.898438 10.40625 56.707031 10.40625 58.988281 L 10.40625 70.351562 C 10.40625 72.316406 11.390625 73.300781 13.363281 73.300781 C 14.078125 73.300781 14.671875 73.535156 15.140625 74.003906 C 15.609375 74.46875 15.84375 75.058594 15.84375 75.773438 C 15.84375 76.488281 15.609375 77.082031 15.140625 77.558594 C 14.671875 78.03125 14.078125 78.269531 13.363281 78.269531 C 8.066406 78.269531 5.417969 75.628906 5.417969 70.351562 L 5.417969 58.988281 C 5.417969 57.023438 4.441406 56.039062 2.484375 56.039062 C 1.769531 56.039062 1.175781 55.804688 0.707031 55.335938 C 0.238281 54.871094 0.00390625 54.28125 0.00390625 53.566406 C 0.00390625 52.851562 0.238281 52.261719 0.707031 51.796875 C 1.175781 51.328125 1.769531 51.09375 2.484375 51.09375 C 4.441406 51.09375 5.417969 50.109375 5.417969 48.144531 L 5.417969 36.78125 C 5.417969 31.503906 8.066406 28.863281 13.363281 28.863281 " fill-opacity="1" fill-rule="nonzero"/></g><g clip-path="url(#4f6ea0cb98)"><path fill="#211d1d" d="M 90.578125 36.78125 L 90.578125 48.144531 C 90.578125 50.109375 91.554688 51.09375 93.511719 51.09375 C 94.226562 51.09375 94.820312 51.328125 95.289062 51.796875 C 95.757812 52.261719 95.992188 52.851562 95.992188 53.566406 C 95.992188 54.28125 95.757812 54.871094 95.289062 55.335938 C 94.820312 55.804688 94.226562 56.039062 93.511719 56.039062 C 91.554688 56.039062 90.578125 57.023438 90.578125 58.988281 L 90.578125 70.351562 C 90.578125 75.628906 87.929688 78.269531 82.632812 78.269531 C 81.917969 78.269531 81.328125 78.03125 80.859375 77.558594 C 80.390625 77.082031 80.15625 76.488281 80.15625 75.773438 C 80.15625 75.058594 80.390625 74.46875 80.859375 74.003906 C 81.328125 73.535156 81.917969 73.300781 82.632812 73.300781 C 84.605469 73.300781 85.59375 72.316406 85.59375 70.351562 L 85.59375 58.988281 C 85.59375 56.707031 86.117188 54.898438 87.167969 53.566406 C 86.117188 52.234375 85.59375 50.429688 85.59375 48.144531 L 85.59375 36.78125 C 85.59375 34.816406 84.605469 33.832031 82.632812 33.832031 C 81.917969 33.832031 81.328125 33.597656 80.859375 33.132812 C 80.390625 32.664062 80.15625 32.074219 80.15625 31.359375 C 80.15625 30.664062 80.390625 30.070312 80.859375 29.589844 C 81.328125 29.105469 81.917969 28.863281 82.632812 28.863281 C 87.929688 28.863281 90.578125 31.503906 90.578125 36.78125 " fill-opacity="1" fill-rule="nonzero"/></g><g clip-path="url(#51258b1972)"><path fill="#211d1d" d="M 55.464844 30.835938 C 55.464844 31.246094 55.386719 31.632812 55.226562 31.988281 C 55.066406 32.34375 54.855469 32.65625 54.59375 32.925781 C 54.332031 33.195312 54.019531 33.40625 53.652344 33.558594 C 53.285156 33.707031 52.90625 33.78125 52.507812 33.78125 C 51.777344 33.78125 51.148438 33.53125 50.625 33.023438 C 50.097656 32.515625 49.667969 31.894531 49.335938 31.15625 C 49 30.417969 48.757812 29.65625 48.609375 28.875 C 48.457031 28.089844 48.378906 27.355469 48.378906 26.671875 C 48.378906 23.867188 49.582031 21.03125 51.980469 18.160156 C 52.410156 17.734375 52.898438 17.519531 53.4375 17.519531 C 53.992188 17.519531 54.472656 17.71875 54.867188 18.113281 C 55.265625 18.511719 55.464844 18.988281 55.464844 19.542969 C 55.464844 19.8125 55.410156 20.085938 55.296875 20.371094 C 54.582031 22.117188 54.226562 23.773438 54.226562 25.34375 C 54.226562 26.832031 54.550781 28.273438 55.203125 29.667969 C 55.378906 30.066406 55.464844 30.453125 55.464844 30.835938 Z M 47.617188 30.835938 C 47.617188 31.246094 47.539062 31.632812 47.378906 31.988281 C 47.21875 32.34375 47.007812 32.65625 46.746094 32.925781 C 46.484375 33.195312 46.171875 33.40625 45.804688 33.558594 C 45.4375 33.707031 45.058594 33.78125 44.660156 33.78125 C 43.929688 33.78125 43.300781 33.53125 42.773438 33.023438 C 42.25 32.515625 41.820312 31.894531 41.488281 31.15625 C 41.152344 30.417969 40.910156 29.65625 40.757812 28.875 C 40.609375 28.089844 40.53125 27.355469 40.53125 26.671875 C 40.53125 23.867188 41.734375 21.03125 44.132812 18.160156 C 44.5625 17.734375 45.050781 17.519531 45.589844 17.519531 C 46.144531 17.519531 46.625 17.71875 47.019531 18.113281 C 47.417969 18.511719 47.617188 18.988281 47.617188 19.542969 C 47.617188 19.8125 47.5625 20.085938 47.449219 20.371094 C 46.734375 22.117188 46.378906 23.773438 46.378906 25.34375 C 46.378906 26.832031 46.703125 28.273438 47.355469 29.667969 C 47.53125 30.066406 47.617188 30.453125 47.617188 30.835938 " fill-opacity="1" fill-rule="nonzero"/></g><g fill="#000000" fill-opacity="1"><g transform="translate(44.838543, 68.697684)"><g><path d="M 1.5625 0 L 0.875 -2.234375 L 0.859375 -2.234375 C 0.890625 -1.785156 0.90625 -1.484375 0.90625 -1.328125 L 0.90625 0 L 0.359375 0 L 0.359375 -2.859375 L 1.1875 -2.859375 L 1.859375 -0.671875 L 1.875 -0.671875 L 2.59375 -2.859375 L 3.40625 -2.859375 L 3.40625 0 L 2.84375 0 L 2.84375 -1.359375 C 2.84375 -1.421875 2.84375 -1.492188 2.84375 -1.578125 C 2.851562 -1.660156 2.863281 -1.878906 2.875 -2.234375 L 2.859375 -2.234375 L 2.125 0 Z M 1.5625 0 "/></g></g><g transform="translate(48.610025, 68.697684)"><g><path d="M 1.578125 -2.390625 C 1.347656 -2.390625 1.171875 -2.300781 1.046875 -2.125 C 0.921875 -1.957031 0.859375 -1.722656 0.859375 -1.421875 C 0.859375 -0.785156 1.097656 -0.46875 1.578125 -0.46875 C 1.773438 -0.46875 2.015625 -0.515625 2.296875 -0.609375 L 2.296875 -0.109375 C 2.066406 -0.00390625 1.804688 0.046875 1.515625 0.046875 C 1.097656 0.046875 0.78125 -0.078125 0.5625 -0.328125 C 0.34375 -0.585938 0.234375 -0.953125 0.234375 -1.421875 C 0.234375 -1.722656 0.285156 -1.984375 0.390625 -2.203125 C 0.503906 -2.429688 0.660156 -2.601562 0.859375 -2.71875 C 1.066406 -2.832031 1.304688 -2.890625 1.578125 -2.890625 C 1.847656 -2.890625 2.125 -2.828125 2.40625 -2.703125 L 2.21875 -2.203125 C 2.101562 -2.253906 1.992188 -2.296875 1.890625 -2.328125 C 1.785156 -2.367188 1.679688 -2.390625 1.578125 -2.390625 Z M 1.578125 -2.390625 "/></g></g></g></svg>